<svg width="12" height="15" viewBox="0 0 12 15" fill="none" xmlns="http://www.w3.org/2000/svg">
<path d="M6 8.25C5.2625 8.25 4.64062 7.99687 4.13438 7.49062C3.62813 6.98438 3.375 6.3625 3.375 5.625C3.375 4.8875 3.62813 4.26562 4.13438 3.75938C4.64062 3.25313 5.2625 3 6 3C6.7375 3 7.35938 3.25313 7.86562 3.75938C8.37187 4.26562 8.625 4.8875 8.625 5.625C8.625 6.3625 8.37187 6.98438 7.86562 7.49062C7.35938 7.99687 6.7375 8.25 6 8.25ZM6 6.75C6.325 6.75 6.59375 6.64375 6.80625 6.43125C7.01875 6.21875 7.125 5.95 7.125 5.625C7.125 5.3 7.01875 5.03125 6.80625 4.81875C6.59375 4.60625 6.325 4.5 6 4.5C5.675 4.5 5.40625 4.60625 5.19375 4.81875C4.98125 5.03125 4.875 5.3 4.875 5.625C4.875 5.95 4.98125 6.21875 5.19375 6.43125C5.40625 6.64375 5.675 6.75 6 6.75ZM6 15C4.2625 14.5625 2.82812 13.5656 1.69687 12.0094C0.565625 10.4531 0 8.725 0 6.825V2.25L6 0L12 2.25V6.825C12 8.725 11.4344 10.4531 10.3031 12.0094C9.17188 13.5656 7.7375 14.5625 6 15ZM6 1.59375L1.5 3.28125V6.825C1.5 7.5 1.59375 8.15625 1.78125 8.79375C1.96875 9.43125 2.225 10.0312 2.55 10.5938C3.075 10.3313 3.625 10.125 4.2 9.975C4.775 9.825 5.375 9.75 6 9.75C6.625 9.75 7.225 9.825 7.8 9.975C8.375 10.125 8.925 10.3313 9.45 10.5938C9.775 10.0312 10.0312 9.43125 10.2188 8.79375C10.4062 8.15625 10.5 7.5 10.5 6.825V3.28125L6 1.59375ZM6 11.25C5.55 11.25 5.1125 11.3 4.6875 11.4C4.2625 11.5 3.85625 11.6375 3.46875 11.8125C3.83125 12.1875 4.225 12.5125 4.65 12.7875C5.075 13.0625 5.525 13.275 6 13.425C6.475 13.275 6.925 13.0625 7.35 12.7875C7.775 12.5125 8.16875 12.1875 8.53125 11.8125C8.14375 11.6375 7.7375 11.5 7.3125 11.4C6.8875 11.3 6.45 11.25 6 11.25Z" fill="#64748B"/>
</svg>
