<svg width="9" height="9" viewBox="0 0 9 9" fill="none" xmlns="http://www.w3.org/2000/svg">
<path d="M3 6V3H6V6H3ZM4 5H5V4H4V5ZM3 9V8H2C1.725 8 1.48958 7.90208 1.29375 7.70625C1.09792 7.51042 1 7.275 1 7V6H0V5H1V4H0V3H1V2C1 1.725 1.09792 1.48958 1.29375 1.29375C1.48958 1.09792 1.725 1 2 1H3V0H4V1H5V0H6V1H7C7.275 1 7.51042 1.09792 7.70625 1.29375C7.90208 1.48958 8 1.725 8 2V3H9V4H8V5H9V6H8V7C8 7.275 7.90208 7.51042 7.70625 7.70625C7.51042 7.90208 7.275 8 7 8H6V9H5V8H4V9H3ZM7 7V2H2V7H7Z" fill="#0F172A"/>
</svg>
