<svg width="12" height="12" viewBox="0 0 12 12" fill="none" xmlns="http://www.w3.org/2000/svg">
<path d="M5.82422 0C2.59766 0 0 2.59766 0 5.82422C0 9.05078 2.59766 11.6484 5.82422 11.6484C9.05078 11.6484 11.6484 9.05078 11.6484 5.82422C11.6484 2.59766 9.05078 0 5.82422 0V0M5.82422 10.5C3.25391 10.5 1.14844 8.39453 1.14844 5.82422C1.14844 3.25391 3.25391 1.14844 5.82422 1.14844C8.39453 1.14844 10.5 3.25391 10.5 5.82422C10.5 8.39453 8.39453 10.5 5.82422 10.5V10.5M6.125 2.89844H5.25V6.39844L8.3125 8.25781L8.75 7.51953L6.125 5.96094V2.89844V2.89844" fill="#F59E0B"/>
</svg>
