<svg width="17" height="17" viewBox="0 0 17 17" fill="none" xmlns="http://www.w3.org/2000/svg">
<path d="M7.5 10.8203H9.14062V12.5H7.5V10.8203V10.8203M7.5 4.14062H9.14062V9.14062H7.5V4.14062V4.14062M8.32031 0C3.71094 0 0 3.71094 0 8.32031C0 12.9297 3.71094 16.6406 8.32031 16.6406C12.9297 16.6406 16.6406 12.9297 16.6406 8.32031C16.6406 3.71094 12.9297 0 8.32031 0V0M8.32031 15C4.64844 15 1.64062 11.9922 1.64062 8.32031C1.64062 4.64844 4.64844 1.64062 8.32031 1.64062C11.9922 1.64062 15 4.64844 15 8.32031C15 11.9922 11.9922 15 8.32031 15V15" fill="#64748B"/>
</svg>
