<svg width="181" height="40" viewBox="0 0 181 40" fill="none" xmlns="http://www.w3.org/2000/svg">
<g clip-path="url(#clip0_61_306)">
<path d="M52.8051 0.0326462H44.8671V35.9314H52.8051V0.0326462Z" fill="#2C3E91"/>
<path fill-rule="evenodd" clip-rule="evenodd" d="M0 3.13485C0 5.62961 1.5627 7.70318 2.80639 10.3275C3.17678 11.1132 3.43364 11.7207 3.79322 12.4389C4.46912 13.7889 5.08287 15.0795 5.75065 16.5159L12.2881 29.9779C13.9238 33.0964 14.2996 36.0474 17.4278 36.0474C18.8741 36.0474 21.5697 34.5516 21.5697 32.4268C21.5697 31.074 18.5931 25.4474 17.8305 23.9245L10.7551 9.27997C9.86291 7.49799 7.30526 1.80646 6.60501 1.01807C5.22886 -0.534404 2.90101 -0.118611 1.34641 1.03427C0.811089 1.43927 0 2.26815 0 3.13485Z" fill="#2C3E91"/>
<path fill-rule="evenodd" clip-rule="evenodd" d="M14.3241 3.48035C14.3241 4.95993 15.3109 6.65821 16.1058 8.24849C16.4843 9.00177 16.7818 9.55526 17.1468 10.314L27.7613 32.2835C29.0941 35.402 30.5595 37.4459 34.5176 35.0186C36.4481 33.8306 35.9803 31.722 35.1502 30.075L24.1654 7.26839C23.668 6.2883 21.6294 1.89277 21.0859 1.20968C19.6124 -0.653293 17.0846 -0.105202 15.5786 1.11518C14.8946 1.66327 14.3241 2.31126 14.3241 3.48035Z" fill="#2C3E91"/>
<path fill-rule="evenodd" clip-rule="evenodd" d="M31.4083 4.51458C31.4083 11.6263 41.2415 11.0377 41.2415 4.85747C41.2415 2.36271 39.0407 0.0326462 36.9292 0.0326462H35.718C33.5983 0.0326462 31.4083 2.37081 31.4083 4.51458Z" fill="#2C3E91"/>
<path fill-rule="evenodd" clip-rule="evenodd" d="M57.2931 4.34166C57.2931 12.0123 66.9533 10.5327 66.9533 5.37575V4.17157C66.9533 2.2222 64.7634 0.0352273 62.8139 0.0352273H61.6027C59.5588 0.0325272 57.2931 2.30049 57.2931 4.34166Z" fill="#2C3E91"/>
<path fill-rule="evenodd" clip-rule="evenodd" d="M180.261 26.889L176.633 36.5252C175.759 38.8417 174.445 40 172.687 40C172.02 40 171.471 39.927 171.038 39.7759V37.5808C171.405 37.7968 171.801 37.9048 172.237 37.9048C172.944 37.9048 173.437 37.5674 173.718 36.9004L174.187 35.7962L170.557 26.889H173.613L175.278 32.316C175.382 32.6507 175.466 33.0502 175.523 33.512H175.558C175.615 33.1717 175.707 32.7803 175.848 32.3321L177.533 26.889H180.261ZM166.729 31.5275V30.8174C166.729 30.2559 166.564 29.7752 166.226 29.3757C165.891 28.9814 165.455 28.7789 164.923 28.7789C164.312 28.7789 163.833 29.0193 163.484 29.4944C163.138 29.9724 162.96 30.642 162.96 31.5086C162.96 32.251 163.125 32.8397 163.457 33.2743C163.79 33.7091 164.244 33.9223 164.817 33.9223C165.39 33.9223 165.853 33.7038 166.204 33.2663C166.553 32.8263 166.729 32.2457 166.729 31.5275ZM169.448 34.7918C169.448 36.4469 168.97 37.7294 168.01 38.6365C167.05 39.5438 165.663 40 163.839 40C162.635 40 161.684 39.8353 160.975 39.487V37.1704C161.897 37.7078 162.822 37.9751 163.763 37.9751C164.693 37.9751 165.415 37.7267 165.92 37.2353C166.434 36.7466 166.691 36.0797 166.691 35.2373V34.5272H166.656C166.028 35.5262 165.101 36.0256 163.874 36.0256C162.735 36.0256 161.83 35.6234 161.162 34.827C160.489 34.0223 160.159 32.9476 160.159 31.6003C160.159 30.0884 160.529 28.8924 161.273 28.004C162.019 27.1131 163 26.6703 164.214 26.6703C165.301 26.6703 166.115 27.0887 166.658 27.9257H166.694V26.889H169.448V34.7918ZM154.095 28.7816C153.443 28.7816 152.935 29.0057 152.578 29.4512C152.218 29.9021 152.037 30.5339 152.037 31.3493C152.037 33.0611 152.732 33.9197 154.116 33.9197C155.436 33.9197 156.098 33.0395 156.098 31.2818C156.095 29.6132 155.428 28.7816 154.095 28.7816ZM154.024 36.0283C152.537 36.0283 151.367 35.6126 150.515 34.7809C149.666 33.9466 149.239 32.8154 149.239 31.3844C149.239 29.913 149.677 28.752 150.564 27.923C151.45 27.0887 152.645 26.6703 154.149 26.6703C155.63 26.6703 156.798 27.0887 157.639 27.923C158.48 28.752 158.904 29.8562 158.904 31.2278C158.904 32.7075 158.469 33.8818 157.601 34.7404C156.728 35.6018 155.538 36.0283 154.024 36.0283ZM146.708 32.7885C146.708 33.1664 146.795 33.4526 146.979 33.6497C147.157 33.8413 147.4 33.9413 147.703 33.9413C147.857 33.9413 148.006 33.925 148.157 33.8927C148.306 33.8629 148.463 33.836 148.612 33.8064V35.7449C148.279 35.8313 147.93 35.9014 147.56 35.9528C147.192 36.0122 146.806 36.0365 146.405 36.0365C146.038 36.0365 145.705 35.9771 145.405 35.8556C145.105 35.7341 144.851 35.5585 144.634 35.3264C144.426 35.0969 144.259 34.8214 144.145 34.4974C144.032 34.1707 143.972 33.8064 143.972 33.3958V22.6069H146.711V32.7885H146.708ZM137.44 28.7816C136.789 28.7816 136.28 29.0057 135.923 29.4512C135.564 29.9021 135.383 30.5339 135.383 31.3493C135.383 33.0611 136.075 33.9197 137.462 33.9197C138.778 33.9197 139.444 33.0395 139.444 31.2818C139.441 29.6132 138.773 28.7816 137.44 28.7816ZM137.37 36.0283C135.883 36.0283 134.709 35.6126 133.86 34.7809C133.012 33.9466 132.584 32.8154 132.584 31.3844C132.584 29.913 133.022 28.752 133.909 27.923C134.796 27.0887 135.991 26.6703 137.494 26.6703C138.976 26.6703 140.144 27.0887 140.985 27.923C141.825 28.752 142.25 29.8562 142.25 31.2278C142.25 32.7075 141.815 33.8818 140.947 34.7404C140.073 35.6018 138.884 36.0283 137.37 36.0283ZM130.93 35.8124H128.183V30.8552C128.183 29.4728 127.688 28.7816 126.701 28.7816C126.225 28.7816 125.831 28.9625 125.525 29.3297C125.214 29.6969 125.06 30.1613 125.06 30.723V35.8124H122.305V26.8917H125.06V28.3064H125.095C125.752 27.2157 126.707 26.6756 127.967 26.6756C129.943 26.6756 130.93 27.9041 130.93 30.3503V35.8124ZM120.126 35.8124H117.374V30.7446C117.374 29.435 116.898 28.7816 115.943 28.7816C115.457 28.7816 115.057 28.9625 114.757 29.3297C114.456 29.6969 114.302 30.1613 114.302 30.723V35.8124H111.547V22.6069H114.302V28.2119H114.337C115.013 27.1886 115.927 26.6703 117.084 26.6703C119.112 26.6703 120.123 27.8907 120.123 30.3287V35.8124H120.126ZM109.741 35.4911C109.122 35.8502 108.219 36.0283 107.046 36.0283C105.672 36.0283 104.564 35.6126 103.712 34.7809C102.866 33.9521 102.439 32.8829 102.439 31.568C102.439 30.0534 102.893 28.8599 103.804 27.9824C104.712 27.1105 105.934 26.6703 107.457 26.6703C108.508 26.6703 109.271 26.8134 109.741 27.0887V29.4269C109.168 28.995 108.525 28.7789 107.816 28.7789C107.021 28.7789 106.397 29.0085 105.934 29.4728C105.472 29.9346 105.24 30.569 105.24 31.3818C105.24 32.1729 105.464 32.7911 105.905 33.242C106.348 33.6929 106.956 33.917 107.727 33.917C108.414 33.917 109.087 33.7036 109.744 33.2743V35.4911H109.741ZM98.7752 30.4422C98.7752 29.1677 98.256 28.5279 97.2206 28.5279C96.7826 28.5279 96.3988 28.7088 96.0743 29.076C95.7498 29.4405 95.5551 29.9021 95.4849 30.4422H98.7752ZM101.333 32.1351H95.5065C95.5983 33.431 96.4149 34.0763 97.9587 34.0763C98.9401 34.0763 99.8053 33.844 100.549 33.3824V35.3695C99.7215 35.807 98.6509 36.0283 97.3314 36.0283C95.8878 36.0283 94.7711 35.6288 93.9709 34.8296C93.176 34.0358 92.7757 32.918 92.7757 31.4924C92.7757 30.0074 93.2029 28.8357 94.0682 27.9717C94.9253 27.1023 95.985 26.673 97.2423 26.673C98.5426 26.673 99.5512 27.0591 100.262 27.8313C100.973 28.6035 101.333 29.6537 101.333 30.9767V32.1351ZM93.4977 25.6092H89.9289V35.8097H87.1036V25.6092H83.5536V23.317H93.5004V25.6092H93.4977ZM178.327 13.9022C178.327 14.4098 178.446 14.7986 178.696 15.0659C178.935 15.3278 179.262 15.4573 179.671 15.4573C179.877 15.4573 180.082 15.4384 180.284 15.3979C180.491 15.3628 180.695 15.3223 180.901 15.2846V17.9008C180.45 18.0196 179.979 18.1141 179.48 18.1896C178.982 18.2653 178.454 18.3004 177.916 18.3004C177.419 18.3004 176.968 18.2221 176.559 18.0547C176.157 17.89 175.813 17.6524 175.521 17.3392C175.237 17.0259 175.015 16.6507 174.856 16.2133C174.697 15.7705 174.618 15.2765 174.618 14.7257V0.118866H178.325V13.9022H178.327ZM169.037 10.7324C169.037 9.00444 168.332 8.13774 166.934 8.13774C166.339 8.13774 165.815 8.38345 165.38 8.88024C164.942 9.37433 164.679 9.99262 164.582 10.7324H169.037ZM172.498 13.022H164.609C164.736 14.7716 165.842 15.6463 167.926 15.6463C169.26 15.6463 170.43 15.3331 171.434 14.7068V17.396C170.319 17.99 168.868 18.2869 167.077 18.2869C165.128 18.2869 163.614 17.7496 162.533 16.6642C161.457 15.5869 160.919 14.0777 160.919 12.1445C160.919 10.1438 161.497 8.55354 162.665 7.37907C163.83 6.20998 165.261 5.6268 166.961 5.6268C168.72 5.6268 170.09 6.14789 171.052 7.19006C172.012 8.24035 172.498 9.65783 172.498 11.4506V13.022ZM159.978 5.91838L156.495 17.9953H152.575L150.796 10.916C150.677 10.4462 150.61 9.93322 150.596 9.37163H150.526C150.469 9.98723 150.396 10.484 150.288 10.8674L148.376 17.9926H144.505L141.093 5.91569H144.891L146.557 13.7915C146.641 14.1614 146.697 14.6096 146.735 15.1387H146.806C146.849 14.5853 146.916 14.1236 147.019 13.7456L149.096 5.91838H152.654L154.519 13.7942C154.568 13.9913 154.619 14.4503 154.684 15.1657H154.768C154.803 14.7122 154.868 14.2532 154.954 13.7942L156.522 5.91838H159.978ZM141.071 17.9953H136.591L132.73 12.0068H132.682V17.9953H128.953V0.121569H132.682V11.4992H132.73L136.334 5.92109H140.758L136.426 11.5937L141.071 17.9953ZM124.809 13.9022C124.809 14.4098 124.93 14.7986 125.176 15.0659C125.417 15.3278 125.75 15.4573 126.158 15.4573C126.363 15.4573 126.569 15.4384 126.769 15.3979C126.974 15.3628 127.18 15.3223 127.385 15.2846V17.9008C126.931 18.0196 126.461 18.1141 125.963 18.1896C125.46 18.2653 124.938 18.3004 124.398 18.3004C123.903 18.3004 123.454 18.2221 123.046 18.0547C122.643 17.89 122.294 17.6524 122.002 17.3392C121.718 17.0259 121.497 16.6507 121.337 16.2133C121.183 15.7705 121.099 15.2765 121.099 14.7257V0.118866H124.809V13.9022ZM114.735 13.0895V12.2768L112.542 12.5576C111.328 12.7169 110.725 13.265 110.725 14.1992C110.725 14.6204 110.871 14.9741 111.163 15.2414C111.463 15.514 111.864 15.6463 112.366 15.6463C113.067 15.6463 113.634 15.406 114.078 14.9227C114.513 14.4395 114.735 13.8293 114.735 13.0895ZM118.241 17.9953H114.71V16.2592H114.662C113.851 17.6119 112.65 18.2869 111.061 18.2869C109.887 18.2869 108.963 17.9602 108.289 17.2934C107.616 16.6291 107.281 15.7408 107.281 14.6312C107.281 12.2903 108.673 10.9403 111.447 10.5758L114.732 10.1411C114.732 8.81815 114.016 8.15935 112.583 8.15935C111.144 8.15935 109.774 8.58595 108.476 9.44183V6.63928C108.998 6.36658 109.706 6.13438 110.606 5.92919C111.509 5.72399 112.329 5.62409 113.069 5.62409C116.517 5.62409 118.239 7.34126 118.239 10.7756V17.9953H118.241ZM107.37 1.08815L102.89 17.9953H98.6643L95.8553 7.14686C95.7066 6.57717 95.6173 5.94538 95.5876 5.24879H95.539C95.4633 6.01828 95.3659 6.65547 95.2306 7.14686L92.3486 17.9953H87.9444L83.4915 1.08815H87.6578L90.0452 12.347C90.1452 12.8303 90.2237 13.4729 90.2669 14.2829H90.3371C90.3723 13.6781 90.4831 13.0193 90.6805 12.3011L93.7518 1.08815H97.8344L100.608 12.4415C100.711 12.86 100.803 13.4648 100.879 14.2586H100.93C100.962 13.6403 101.041 13.0112 101.176 12.3767L103.515 1.09085H107.37V1.08815Z" fill="#2C3E91"/>
<path d="M75.8239 0.0326462H74.6234V36.0069H75.8239V0.0326462Z" fill="#2C3E91"/>
</g>
<defs>
<clipPath id="clip0_61_306">
<rect width="181" height="40" fill="white"/>
</clipPath>
</defs>
</svg>
