<svg width="15" height="17" viewBox="0 0 15 17" fill="none" xmlns="http://www.w3.org/2000/svg">
<path d="M13.75 1.25L12.5 0L11.25 1.25L10 0L8.75 1.25L7.5 0L6.25 1.25L5 0L3.75 1.25L2.5 0V11.6406H0V14.1406C0 15.5469 1.13281 16.6406 2.5 16.6406H12.5C13.8672 16.6406 15 15.5469 15 14.1406V0L13.75 1.25V1.25M10 15H2.5C2.03125 15 1.67969 14.6094 1.67969 14.1406V13.3203H10V15V15M13.3203 14.1406C13.3203 14.6094 12.9688 15 12.5 15C12.0312 15 11.6797 14.6094 11.6797 14.1406V11.6406H4.17969V2.5H13.3203V14.1406V14.1406M5 4.14062H10V5.82031H5V4.14062V4.14062M10.8203 4.14062H12.5V5.82031H10.8203V4.14062V4.14062M5 6.64062H10V8.32031H5V6.64062V6.64062M10.8203 6.64062H12.5V8.32031H10.8203V6.64062V6.64062" fill="#64748B"/>
</svg>
