<svg width="23" height="17" viewBox="0 0 23 17" fill="none" xmlns="http://www.w3.org/2000/svg">
<path d="M14.0156 8.01562C16.2188 8.01562 18 6.23438 18 4.03125C18 1.82812 16.2188 0 14.0156 0C11.8125 0 10.0312 1.82812 10.0312 4.03125C10.0312 6.23438 11.8125 8.01562 14.0156 8.01562ZM14.0156 2.01562C15.0938 2.01562 16.0312 2.90625 16.0312 4.03125C16.0312 5.10938 15.0938 6 14.0156 6C12.9375 6 12 5.10938 12 4.03125C12 2.90625 12.9375 2.01562 14.0156 2.01562ZM14.0156 10.0312C11.3438 10.0312 6 11.3438 6 14.0156V16.0312H22.0312V14.0156C22.0312 11.3438 16.6875 10.0312 14.0156 10.0312ZM8.01562 14.0156C8.25 13.3125 11.3438 12 14.0156 12C16.7344 12 19.8281 13.3125 20.0156 14.0156H8.01562ZM5.01562 11.0156V8.01562H8.01562V6H5.01562V3H3V6H0V8.01562H3V11.0156H5.01562Z" fill="white"/>
</svg>
