<svg width="11" height="11" viewBox="0 0 11 11" fill="none" xmlns="http://www.w3.org/2000/svg">
<path d="M9.32422 0H1.17578C0.519531 0 0 0.519531 0 1.17578V9.32422C0 9.98047 0.519531 10.5 1.17578 10.5H9.32422C9.98047 10.5 10.5 9.98047 10.5 9.32422V1.17578C10.5 0.519531 9.98047 0 9.32422 0V0M9.32422 9.32422H1.17578V1.17578H9.32422V9.32422V9.32422M2.32422 5.25H3.5V8.17578H2.32422V5.25V5.25M7 2.32422H8.17578V8.17578H7V2.32422V2.32422M4.67578 6.42578H5.82422V8.17578H4.67578V6.42578V6.42578M4.67578 4.07422H5.82422V5.25H4.67578V4.07422V4.07422" fill="#94A3B8"/>
</svg>
