<svg width="14" height="14" viewBox="0 0 14 14" fill="none" xmlns="http://www.w3.org/2000/svg">
<path d="M9.38672 8.26172H8.78906L8.57812 8.05078C9.31641 7.20703 9.73828 6.08203 9.73828 4.88672C9.73828 2.17969 7.55859 0 4.88672 0C2.17969 0 0 2.17969 0 4.88672C0 7.55859 2.17969 9.73828 4.88672 9.73828C6.08203 9.73828 7.20703 9.31641 8.05078 8.57812L8.26172 8.78906V9.38672L11.9883 13.1133L13.1133 11.9883L9.38672 8.26172ZM4.88672 8.26172C3.02344 8.26172 1.51172 6.75 1.51172 4.88672C1.51172 3.02344 3.02344 1.51172 4.88672 1.51172C6.75 1.51172 8.26172 3.02344 8.26172 4.88672C8.26172 6.75 6.75 8.26172 4.88672 8.26172Z" fill="#94A3B8"/>
</svg>
