<svg width="13" height="10" viewBox="0 0 13 10" fill="none" xmlns="http://www.w3.org/2000/svg">
<path d="M11.0997 2.35117H9.35V0H1.17558C0.546784 0 0 0.546784 0 1.17558V7.60029H1.17558C1.17558 8.55716 1.96842 9.35 2.92529 9.35C3.88216 9.35 4.675 8.55716 4.675 7.60029H8.17441C8.17441 8.55716 8.96725 9.35 9.92412 9.35C10.881 9.35 11.6738 8.55716 11.6738 7.60029H12.8494V4.675L11.0997 2.35117ZM10.799 3.22602L11.9472 4.675H9.35V3.22602H10.799ZM2.92529 8.17442C2.59722 8.17442 2.35117 7.90102 2.35117 7.60029C2.35117 7.27222 2.59722 6.99883 2.92529 6.99883C3.25336 6.99883 3.49941 7.27222 3.49941 7.60029C3.49941 7.90102 3.25336 8.17442 2.92529 8.17442ZM4.21023 6.42471C3.9095 6.0693 3.44474 5.85058 2.92529 5.85058C2.40585 5.85058 1.94108 6.0693 1.64035 6.42471H1.17558V1.17558H8.17441V6.42471H4.21023ZM9.92412 8.17442C9.59605 8.17442 9.35 7.90102 9.35 7.60029C9.35 7.27222 9.59605 6.99883 9.92412 6.99883C10.2522 6.99883 10.4982 7.27222 10.4982 7.60029C10.4982 7.90102 10.2522 8.17442 9.92412 8.17442Z" fill="#94A3B8"/>
</svg>
