<svg width="12" height="12" viewBox="0 0 12 12" fill="none" xmlns="http://www.w3.org/2000/svg">
<path d="M11.6484 1.85938L5.00391 8.50391L2.51562 6.04297L3.36328 5.22266L5.00391 6.86328L10.8281 1.03906L11.6484 1.85938V1.85938M10.3633 4.78516C10.4453 5.11328 10.5 5.46875 10.5 5.82422C10.5 8.39453 8.39453 10.5 5.82422 10.5C3.25391 10.5 1.14844 8.39453 1.14844 5.82422C1.14844 3.25391 3.25391 1.14844 5.82422 1.14844C6.75391 1.14844 7.60156 1.42188 8.3125 1.88672L9.16016 1.03906C8.20312 0.382812 7.05469 0 5.82422 0C2.59766 0 0 2.59766 0 5.82422C0 9.05078 2.59766 11.6484 5.82422 11.6484C9.05078 11.6484 11.6484 9.05078 11.6484 5.82422C11.6484 5.14062 11.5391 4.45703 11.3203 3.85547L10.3633 4.78516V4.78516" fill="#94A3B8"/>
</svg>
